SplineFontDB: 3.0
FontName: v1
FullName: regular
FamilyName: scrambled
Weight: Regular
Copyright: 
Version: 
ItalicAngle: 0
UnderlinePosition: 0
UnderlineWidth: 0
Ascent: 819
Descent: 205
LayerCount: 3
Layer: 0 0 "Back"  1
Layer: 1 0 "Fore"  0
Layer: 2 0 "Back 2"  1
XUID: [1021 441 1334868669 5792460]
OS2Version: 0
OS2_WeightWidthSlopeOnly: 0
OS2_UseTypoMetrics: 0
CreationTime: 1402607768
ModificationTime: 1407016694
PfmFamily: 17
TTFWeight: 400
TTFWidth: 5
LineGap: 92
VLineGap: 92
OS2TypoAscent: 0
OS2TypoAOffset: 1
OS2TypoDescent: 0
OS2TypoDOffset: 1
OS2TypoLinegap: 92
OS2WinAscent: 0
OS2WinAOffset: 1
OS2WinDescent: 0
OS2WinDOffset: 1
HheadAscent: 0
HheadAOffset: 1
HheadDescent: 0
HheadDOffset: 1
OS2Vendor: 'dies'
MarkAttachClasses: 1
DEI: 91125
Encoding: Original
UnicodeInterp: none
NameList: Adobe Glyph List
DisplaySize: -96
AntiAlias: 1
FitToEm: 1
WinInfo: 0 13 6
BeginPrivate: 0
EndPrivate
BeginChars: 42 41

StartChar: a
Encoding: 1 97 0
Width: 1024
LayerCount: 3
Fore
SplineSet
12 850 m 5
 12 650 l 5
 1012 650 l 5
 1012 850 l 5
 12 850 l 5
12 510 m 5
 12 310 l 5
 1012 310 l 5
 1012 510 l 5
 12 510 l 5
12 170 m 5
 12 -30 l 5
 1012 -30 l 5
 1012 170 l 5
 12 170 l 5
EndSplineSet
Validated: 9
EndChar

StartChar: b
Encoding: 2 98 1
Width: 1024
LayerCount: 3
Fore
SplineSet
12 810 m 5
 12 610 l 5
 1012 610 l 5
 1012 810 l 5
 12 810 l 5
12 510 m 5
 12 310 l 5
 1012 310 l 5
 1012 510 l 5
 12 510 l 5
12 210 m 5
 12 10 l 5
 1012 10 l 5
 1012 210 l 5
 12 210 l 5
EndSplineSet
Validated: 9
EndChar

StartChar: c
Encoding: 3 99 2
Width: 1024
HStem: 690 20G<213.064 810.936>
LayerCount: 3
Fore
SplineSet
12 910 m 5
 12 -90 l 5
 1012 -90 l 5
 1012 910 l 5
 12 910 l 5
213.469 710 m 6
 810.531 710 l 6
 811.341 710 812 709.341 812 708.531 c 6
 812 561.469 l 6
 812 560.659 811.341 560 810.531 560 c 6
 213.469 560 l 6
 212.659 560 212 560.659 212 561.469 c 6
 212 708.531 l 6
 212 709.341 212.659 710 213.469 710 c 6
212 485 m 5
 812 485 l 5
 812 335 l 5
 212 335 l 5
 212 485 l 5
212 260 m 5
 812 260 l 5
 812 110 l 5
 212 110 l 5
 212 260 l 5
EndSplineSet
Validated: 9
EndChar

StartChar: d
Encoding: 4 100 3
Width: 1024
LayerCount: 3
Fore
SplineSet
12 914 m 5
 12 714 l 5
 212 714 l 5
 212 914 l 5
 12 914 l 5
312 914 m 5
 312 714 l 5
 1012 714 l 5
 1012 914 l 5
 312 914 l 5
12 514 m 5
 12 314 l 5
 212 314 l 5
 212 514 l 5
 12 514 l 5
312 514 m 5
 312 314 l 5
 1012 314 l 5
 1012 514 l 5
 312 514 l 5
12 114 m 5
 12 -86 l 5
 212 -86 l 5
 212 114 l 5
 12 114 l 5
312 114 m 5
 312 -86 l 5
 1012 -86 l 5
 1012 114 l 5
 312 114 l 5
EndSplineSet
Validated: 9
EndChar

StartChar: e
Encoding: 5 101 4
Width: 1024
HStem: -89 200<50.1886 112 912 973.811> 311 200<50.1886 112 912 973.811> 711 200<50.1886 112 912 973.811>
CounterMasks: 1 e0
LayerCount: 3
Fore
SplineSet
112 911 m 6
 56.5996 911 12 866.4 12 811 c 4
 12 755.6 56.5996 711 112 711 c 6
 912 711 l 6
 967.4 711 1012 755.6 1012 811 c 4
 1012 866.4 967.4 911 912 911 c 6
 112 911 l 6
112 511 m 6
 56.5996 511 12 466.4 12 411 c 4
 12 355.6 56.5996 311 112 311 c 6
 912 311 l 6
 967.4 311 1012 355.6 1012 411 c 4
 1012 466.4 967.4 511 912 511 c 6
 112 511 l 6
112 111 m 6
 56.5996 111 12 66.4004 12 11 c 4
 12 -44.4004 56.5996 -89 112 -89 c 6
 912 -89 l 6
 967.4 -89 1012 -44.4004 1012 11 c 4
 1012 66.4004 967.4 111 912 111 c 6
 112 111 l 6
EndSplineSet
Validated: 9
EndChar

StartChar: f
Encoding: 6 102 5
Width: 1024
HStem: 12 200<50.1886 112 912 973.811> 312 200<50.1886 112 912 973.811> 612 200<50.1886 112 912 973.811>
CounterMasks: 1 e0
LayerCount: 3
Fore
SplineSet
112 812 m 6
 56.5996 812 12 767.4 12 712 c 4
 12 656.6 56.5996 612 112 612 c 6
 912 612 l 6
 967.4 612 1012 656.6 1012 712 c 4
 1012 767.4 967.4 812 912 812 c 6
 112 812 l 6
112 512 m 6
 56.5996 512 12 467.4 12 412 c 4
 12 356.6 56.5996 312 112 312 c 6
 912 312 l 6
 967.4 312 1012 356.6 1012 412 c 4
 1012 467.4 967.4 512 912 512 c 6
 112 512 l 6
112 212 m 6
 56.5996 212 12 167.4 12 112 c 4
 12 56.5996 56.5996 12 112 12 c 6
 912 12 l 6
 967.4 12 1012 56.5996 1012 112 c 4
 1012 167.4 967.4 212 912 212 c 6
 112 212 l 6
EndSplineSet
Validated: 9
EndChar

StartChar: g
Encoding: 7 103 6
Width: 1024
HStem: 260 75<221.919 275 725 778.081> 485 75<221.919 275 725 778.081> 690 20G<254.225 745.775>
VStem: 0 200<131.919 238.081 356.919 463.081 581.919 688.081> 800 200<131.919 238.081 356.919 463.081 581.919 688.081>
LayerCount: 3
Fore
SplineSet
200 910 m 6
 89.2002 910 0 820.8 0 710 c 6
 0 110 l 6
 0 -0.799805 89.2002 -90 200 -90 c 6
 800 -90 l 6
 910.8 -90 1000 -0.799805 1000 110 c 6
 1000 710 l 6
 1000 820.8 910.8 910 800 910 c 6
 200 910 l 6
275 710 m 6
 725 710 l 6
 766.55 710 800 676.55 800 635 c 4
 800 593.45 766.55 560 725 560 c 6
 275 560 l 6
 233.45 560 200 593.45 200 635 c 4
 200 676.55 233.45 710 275 710 c 6
275 485 m 6
 725 485 l 6
 766.55 485 800 451.55 800 410 c 4
 800 368.45 766.55 335 725 335 c 6
 275 335 l 6
 233.45 335 200 368.45 200 410 c 4
 200 451.55 233.45 485 275 485 c 6
275 260 m 6
 725 260 l 6
 766.55 260 800 226.55 800 185 c 4
 800 143.45 766.55 110 725 110 c 6
 275 110 l 6
 233.45 110 200 143.45 200 185 c 4
 200 226.55 233.45 260 275 260 c 6
EndSplineSet
Validated: 9
EndChar

StartChar: h
Encoding: 8 104 7
Width: 1024
HStem: -91 200<50.2613 173.739 350.189 412 912 973.811> 309 200<50.2613 173.739 350.189 412 912 973.811> 709 200<50.2613 173.739 350.189 412 912 973.811>
VStem: 12 200<-52.7387 70.7387 347.261 470.739 747.261 870.739>
CounterMasks: 1 e0
LayerCount: 3
Fore
SplineSet
112 909 m 4
 56.7715 909 12 864.229 12 809 c 4
 12 753.771 56.7715 709 112 709 c 4
 167.229 709 212 753.771 212 809 c 4
 212 864.229 167.229 909 112 909 c 4
412 909 m 6
 356.6 909 312 864.4 312 809 c 4
 312 753.6 356.6 709 412 709 c 6
 912 709 l 6
 967.4 709 1012 753.6 1012 809 c 4
 1012 864.4 967.4 909 912 909 c 6
 412 909 l 6
112 509 m 4
 56.7715 509 12 464.229 12 409 c 4
 12 353.771 56.7715 309 112 309 c 4
 167.229 309 212 353.771 212 409 c 4
 212 464.229 167.229 509 112 509 c 4
412 509 m 6
 356.6 509 312 464.4 312 409 c 4
 312 353.6 356.6 309 412 309 c 6
 912 309 l 6
 967.4 309 1012 353.6 1012 409 c 4
 1012 464.4 967.4 509 912 509 c 6
 412 509 l 6
112 109 m 4
 56.7715 109 12 64.2285 12 9 c 4
 12 -46.2285 56.7715 -91 112 -91 c 4
 167.229 -91 212 -46.2285 212 9 c 4
 212 64.2285 167.229 109 112 109 c 4
412 109 m 6
 356.6 109 312 64.4004 312 9 c 4
 312 -46.4004 356.6 -91 412 -91 c 6
 912 -91 l 6
 967.4 -91 1012 -46.4004 1012 9 c 4
 1012 64.4004 967.4 109 912 109 c 6
 412 109 l 6
EndSplineSet
Validated: 9
EndChar

StartChar: i
Encoding: 9 105 8
Width: 1024
LayerCount: 3
Fore
SplineSet
229.156 835.25 m 5
 87.75 693.844 l 5
 370.594 411 l 5
 87.75 128.156 l 5
 229.156 -13.25 l 5
 512 269.594 l 5
 794.844 -13.25 l 5
 936.25 128.156 l 5
 653.406 411 l 5
 936.25 693.844 l 5
 794.844 835.25 l 5
 512 552.406 l 5
 229.156 835.25 l 5
EndSplineSet
Validated: 9
EndChar

StartChar: j
Encoding: 10 106 9
Width: 1024
LayerCount: 3
Fore
SplineSet
229.156 793.938 m 4
 203.595 793.938 178.024 784.149 158.438 764.562 c 4
 119.264 725.389 119.264 662.299 158.438 623.125 c 6
 370.562 411 l 5
 158.438 198.875 l 6
 119.264 159.701 119.264 96.6113 158.438 57.4375 c 4
 197.611 18.2637 260.701 18.2637 299.875 57.4375 c 6
 512 269.562 l 5
 724.125 57.4375 l 6
 763.299 18.2637 826.389 18.2637 865.562 57.4375 c 4
 904.736 96.6113 904.736 159.701 865.562 198.875 c 6
 653.438 411 l 5
 865.562 623.125 l 6
 904.736 662.299 904.736 725.389 865.562 764.562 c 4
 826.389 803.736 763.299 803.736 724.125 764.562 c 6
 512 552.438 l 5
 299.875 764.562 l 6
 280.288 784.149 254.718 793.938 229.156 793.938 c 4
EndSplineSet
Validated: 41
EndChar

StartChar: k
Encoding: 11 107 10
Width: 1024
LayerCount: 3
Fore
SplineSet
412 920 m 5
 412 520 l 5
 12 520 l 5
 12 320 l 5
 412 320 l 5
 412 -80 l 5
 612 -80 l 5
 612 320 l 5
 1012 320 l 5
 1012 520 l 5
 612 520 l 5
 612 920 l 5
 412 920 l 5
EndSplineSet
Validated: 9
EndChar

StartChar: l
Encoding: 12 108 11
Width: 1024
HStem: 309 200<50.1886 112 912 973.811>
VStem: 412 200<-52.8114 9 809 870.811>
LayerCount: 3
Fore
SplineSet
512 909 m 4
 456.6 909 412 864.4 412 809 c 6
 412 509 l 5
 112 509 l 6
 56.5996 509 12 464.4 12 409 c 4
 12 353.6 56.5996 309 112 309 c 6
 412 309 l 5
 412 9 l 6
 412 -46.4004 456.6 -91 512 -91 c 4
 567.4 -91 612 -46.4004 612 9 c 6
 612 309 l 5
 912 309 l 6
 967.4 309 1012 353.6 1012 409 c 4
 1012 464.4 967.4 509 912 509 c 6
 612 509 l 5
 612 809 l 6
 612 864.4 567.4 909 512 909 c 4
EndSplineSet
Validated: 9
EndChar

StartChar: m
Encoding: 13 109 12
Width: 1024
LayerCount: 3
Fore
SplineSet
500 919.094 m 4
 491.573 919.094 483.149 918.003 474.938 915.875 c 4
 473.344 915.462 471.764 915.024 470.188 914.531 c 4
 468.337 913.952 466.479 913.314 464.656 912.625 c 4
 464.405 912.53 464.157 912.441 463.906 912.344 c 4
 463.501 912.188 463.09 912.036 462.688 911.875 c 4
 462.592 911.836 462.502 911.789 462.406 911.75 c 4
 461.934 911.56 461.469 911.354 461 911.156 c 4
 460.425 910.912 459.853 910.662 459.281 910.406 c 4
 459.114 910.332 458.948 910.263 458.781 910.188 c 4
 458.497 910.059 458.221 909.913 457.938 909.781 c 4
 445.724 904.138 434.834 896.14 425.906 886.312 c 6
 146.438 606.875 l 6
 107.264 567.701 107.264 504.611 146.438 465.438 c 4
 185.611 426.264 248.701 426.264 287.875 465.438 c 6
 400 577.562 l 5
 400 519 l 5
 400 19 l 6
 400 -36.4004 444.6 -81 500 -81 c 4
 555.4 -81 600 -36.4004 600 19 c 6
 600 519 l 5
 600 577.562 l 5
 712.125 465.438 l 6
 751.299 426.264 814.389 426.264 853.562 465.438 c 4
 892.736 504.611 892.736 567.701 853.562 606.875 c 6
 574.094 886.312 l 6
 565.166 896.14 554.276 904.139 542.062 909.781 c 4
 541.779 909.913 541.503 910.059 541.219 910.188 c 4
 541.053 910.263 540.886 910.332 540.719 910.406 c 4
 540.147 910.662 539.575 910.912 539 911.156 c 4
 537.795 911.664 536.572 912.163 535.344 912.625 c 4
 533.521 913.314 531.663 913.952 529.812 914.531 c 4
 528.236 915.024 526.656 915.462 525.062 915.875 c 4
 516.851 918.004 508.427 919.094 500 919.094 c 4
EndSplineSet
Validated: 41
EndChar

StartChar: n
Encoding: 14 110 13
Width: 1024
LayerCount: 3
Fore
SplineSet
512 912.094 m 4
 456.6 912.094 412 867.494 412 812.094 c 6
 412 312.094 l 5
 412 253.531 l 5
 299.875 365.656 l 6
 260.701 404.83 197.611 404.83 158.438 365.656 c 4
 119.264 326.482 119.264 263.393 158.438 224.219 c 6
 437.906 -55.2188 l 6
 446.184 -64.3301 456.142 -71.8857 467.281 -77.4375 c 4
 467.655 -77.625 468.03 -77.8174 468.406 -78 c 4
 468.507 -78.0488 468.618 -78.0771 468.719 -78.125 c 4
 468.864 -78.1943 469.01 -78.2744 469.156 -78.3438 c 4
 469.416 -78.4678 469.677 -78.5977 469.938 -78.7188 c 4
 470.215 -78.8467 470.503 -78.9678 470.781 -79.0938 c 4
 471.52 -79.4287 472.256 -79.7461 473 -80.0625 c 4
 473.561 -80.3008 474.124 -80.5225 474.688 -80.75 c 4
 474.878 -80.8262 475.059 -80.9248 475.25 -81 c 4
 475.72 -81.1865 476.185 -81.3525 476.656 -81.5312 c 4
 477.048 -81.6787 477.449 -81.8262 477.844 -81.9688 c 4
 477.853 -81.9717 477.865 -81.9658 477.875 -81.9688 c 4
 479.299 -82.4863 480.746 -82.9863 482.188 -83.4375 c 4
 483.764 -83.9307 485.344 -84.3682 486.938 -84.7812 c 4
 503.362 -89.0381 520.638 -89.0381 537.062 -84.7812 c 4
 538.656 -84.3682 540.236 -83.9307 541.812 -83.4375 c 4
 543.254 -82.9863 544.701 -82.4863 546.125 -81.9688 c 4
 546.134 -81.9658 546.146 -81.9717 546.156 -81.9688 c 4
 547.219 -81.582 548.26 -81.1748 549.312 -80.75 c 4
 549.373 -80.7256 549.438 -80.7119 549.5 -80.6875 c 4
 550.003 -80.4854 550.501 -80.2725 551 -80.0625 c 4
 551.744 -79.7461 552.48 -79.4287 553.219 -79.0938 c 4
 553.759 -78.8506 554.309 -78.5967 554.844 -78.3438 c 4
 554.99 -78.2744 555.136 -78.1943 555.281 -78.125 c 4
 555.331 -78.1006 555.387 -78.0869 555.438 -78.0625 c 4
 556.166 -77.7119 556.875 -77.3672 557.594 -77 c 4
 557.888 -76.8486 558.176 -76.6855 558.469 -76.5312 c 4
 560.321 -75.5615 562.156 -74.5488 563.938 -73.4688 c 4
 572.184 -68.4688 579.646 -62.3154 586.094 -55.2188 c 6
 865.562 224.219 l 6
 904.736 263.393 904.736 326.482 865.562 365.656 c 4
 826.389 404.83 763.299 404.83 724.125 365.656 c 6
 612 253.531 l 5
 612 312.094 l 5
 612 812.094 l 6
 612 867.494 567.4 912.094 512 912.094 c 4
EndSplineSet
Validated: 41
EndChar

StartChar: o
Encoding: 15 111 14
Width: 1024
HStem: 308.031 200<53.1573 673.531>
LayerCount: 3
Fore
SplineSet
561.406 761.594 m 0
 593.958 794.146 655.376 809.031 702.812 761.594 c 0
 766.103 698.303 982.25 482.125 982.25 482.125 c 2
 989.938 475.141 996.544 466.98 1001.75 457.906 c 0
 1002.15 457.208 1002.52 456.489 1002.91 455.781 c 0
 1003.13 455.361 1003.34 454.922 1003.56 454.5 c 0
 1004.83 452.068 1006.05 449.576 1007.12 447.031 c 0
 1007.32 446.569 1007.5 446.12 1007.69 445.656 c 0
 1007.81 445.364 1007.92 445.074 1008.03 444.781 c 0
 1008.33 444.027 1008.63 443.259 1008.91 442.5 c 0
 1009.19 441.73 1009.46 440.963 1009.72 440.188 c 0
 1009.98 439.406 1010.22 438.63 1010.47 437.844 c 0
 1010.71 437.057 1010.96 436.261 1011.19 435.469 c 0
 1016.3 417.574 1016.32 398.552 1011.22 380.656 c 0
 1011.21 380.635 1011.19 380.615 1011.19 380.594 c 0
 1011.18 380.584 1011.19 380.572 1011.19 380.562 c 0
 1010.97 379.79 1010.71 379.019 1010.47 378.25 c 0
 1010.22 377.464 1009.98 376.688 1009.72 375.906 c 0
 1009.46 375.131 1009.19 374.363 1008.91 373.594 c 0
 1008.63 372.835 1008.33 372.066 1008.03 371.312 c 0
 1007.92 371.023 1007.8 370.726 1007.69 370.438 c 0
 1007.6 370.229 1007.52 370.021 1007.44 369.812 c 0
 1007.33 369.561 1007.23 369.313 1007.12 369.062 c 0
 1007 368.771 1006.88 368.479 1006.75 368.188 c 0
 1006.74 368.157 1006.73 368.124 1006.72 368.094 c 0
 1006.53 367.669 1006.35 367.234 1006.16 366.812 c 0
 1005.82 366.074 1005.48 365.354 1005.12 364.625 c 0
 1004.98 364.332 1004.83 364.041 1004.69 363.75 c 0
 1004.47 363.315 1004.25 362.869 1004.03 362.438 c 0
 1003.88 362.144 1003.72 361.855 1003.56 361.562 c 0
 1003.34 361.143 1003.13 360.729 1002.91 360.312 c 0
 1002.74 360.007 1002.58 359.71 1002.41 359.406 c 0
 997.099 349.851 990.276 341.261 982.25 333.969 c 2
 702.812 54.5 l 2
 663.639 15.3262 600.58 15.3262 561.406 54.5 c 0
 522.232 93.6738 522.232 156.732 561.406 195.906 c 2
 673.531 308.031 l 1
 614.969 308.031 l 1
 114.969 308.031 l 2
 59.5684 308.031 14.9688 352.631 14.9688 408.031 c 0
 14.9688 463.432 59.5684 508.031 114.969 508.031 c 2
 614.969 508.031 l 1
 673.594 508.031 l 1
 561.406 620.188 l 2
 522.232 659.361 522.232 722.42 561.406 761.594 c 0
EndSplineSet
Validated: 33
EndChar

StartChar: p
Encoding: 16 112 15
Width: 1024
HStem: 303.031 200<351.469 971.843>
LayerCount: 3
Fore
SplineSet
322.188 756.594 m 0
 357.26 791.667 415.188 805 463.594 756.594 c 0
 513.688 706.5 502.768 654.361 463.594 615.188 c 2
 351.406 503.031 l 1
 410.031 503.031 l 1
 910.031 503.031 l 2
 965.432 503.031 1010.03 458.432 1010.03 403.031 c 0
 1010.03 347.631 965.432 303.031 910.031 303.031 c 2
 410.031 303.031 l 1
 351.469 303.031 l 1
 463.594 190.906 l 2
 502.768 151.732 502.768 88.6738 463.594 49.5 c 0
 424.42 10.3262 361.361 10.3262 322.188 49.5 c 2
 42.75 328.969 l 2
 34.7236 336.261 27.9014 344.851 22.5938 354.406 c 0
 22.4238 354.71 22.2598 355.008 22.0938 355.312 c 0
 21.8682 355.729 21.6572 356.143 21.4375 356.562 c 0
 21.2832 356.855 21.1201 357.144 20.9688 357.438 c 0
 20.748 357.869 20.5264 358.315 20.3125 358.75 c 0
 20.168 359.041 20.0166 359.332 19.875 359.625 c 0
 19.3252 360.771 18.7891 361.925 18.2812 363.094 c 0
 18.249 363.167 18.2188 363.239 18.1875 363.312 c 0
 17.9736 363.81 17.7686 364.312 17.5625 364.812 c 0
 17.3574 365.308 17.166 365.815 16.9688 366.312 c 0
 16.6699 367.066 16.373 367.835 16.0938 368.594 c 0
 15.8105 369.363 15.5449 370.131 15.2812 370.906 c 0
 15.0156 371.688 14.7773 372.464 14.5312 373.25 c 0
 14.291 374.019 14.0332 374.79 13.8125 375.562 c 0
 13.8037 375.594 13.79 375.625 13.7812 375.656 c 0
 8.67871 393.552 8.70312 412.574 13.8125 430.469 c 0
 14.0391 431.261 14.2852 432.057 14.5312 432.844 c 0
 14.7773 433.63 15.0156 434.406 15.2812 435.188 c 0
 15.5449 435.963 15.8105 436.73 16.0938 437.5 c 0
 16.373 438.259 16.6699 439.027 16.9688 439.781 c 0
 17.084 440.075 17.1943 440.364 17.3125 440.656 c 0
 17.3604 440.774 17.4199 440.882 17.4688 441 c 0
 17.4814 441.03 17.4873 441.063 17.5 441.094 c 0
 18.6758 443.965 20.0098 446.771 21.4375 449.5 c 0
 21.6602 449.922 21.8643 450.361 22.0938 450.781 c 0
 27.4697 460.701 34.8408 469.215 42.75 477.125 c 2
 322.188 756.594 l 0
EndSplineSet
Validated: 33
EndChar

StartChar: q
Encoding: 17 113 16
Width: 1024
LayerCount: 3
Fore
SplineSet
512 697.55 m 4
 486.438 697.55 460.868 687.762 441.281 668.175 c 4
 440.669 667.562 440.062 666.954 439.469 666.331 c 6
 52.375 279.269 l 6
 13.2012 240.095 13.2012 177.005 52.375 137.831 c 4
 91.5488 98.6572 154.639 98.6572 193.812 137.831 c 6
 512 456.019 l 5
 830.188 137.831 l 6
 869.361 98.6572 932.451 98.6572 971.625 137.831 c 4
 1010.8 177.005 1010.8 240.095 971.625 279.269 c 6
 584.531 666.331 l 6
 583.938 666.954 583.331 667.562 582.719 668.175 c 4
 563.132 687.762 537.562 697.55 512 697.55 c 4
EndSplineSet
Validated: 41
EndChar

StartChar: r
Encoding: 18 114 17
Width: 1024
LayerCount: 3
Fore
SplineSet
52.375 669.168 m 0
 83.3333 700.126 148.667 714.314 193.812 669.168 c 0
 512 350.98 l 1
 830.188 669.168 l 2
 869.361 708.342 932.451 708.342 971.625 669.168 c 0
 1010.8 629.994 1010.8 566.904 971.625 527.73 c 2
 582.719 138.824 l 2
 563.744 119.85 539.164 110.073 514.406 109.48 c 0
 488.052 108.85 461.48 118.625 441.281 138.824 c 2
 52.375 527.73 l 2
 13.2012 566.904 13.2011 629.994 52.375 669.168 c 0
EndSplineSet
Validated: 33
EndChar

StartChar: s
Encoding: 19 115 18
Width: 1024
LayerCount: 3
Fore
SplineSet
245.843 873.562 m 0
 269.947 897.667 332.187 928.625 387.249 873.562 c 0
 442.312 818.5 774.312 486.469 774.312 486.469 c 2
 774.935 485.876 775.543 485.269 776.155 484.656 c 0
 814.717 446.095 815.324 384.379 777.968 345.094 c 0
 777.375 344.47 776.767 343.862 776.155 343.25 c 0
 775.543 342.638 774.935 342.03 774.312 341.438 c 2
 387.249 -45.6562 l 2
 348.075 -84.8301 285.017 -84.8301 245.843 -45.6562 c 0
 206.669 -6.48242 206.669 56.5762 245.843 95.75 c 2
 564.062 413.938 l 1
 245.843 732.156 l 2
 206.669 771.33 206.669 834.389 245.843 873.562 c 0
EndSplineSet
Validated: 33
EndChar

StartChar: t
Encoding: 20 116 19
Width: 1024
LayerCount: 3
Fore
SplineSet
635.75 876.562 m 0
 671.021 911.833 733.5 920.219 777.156 876.562 c 0
 826.719 827 816.33 774.33 777.156 735.156 c 2
 458.938 416.938 l 1
 777.156 98.75 l 2
 816.33 59.5762 816.33 -3.48242 777.156 -42.6562 c 0
 737.982 -81.8301 674.924 -81.8301 635.75 -42.6562 c 2
 248.688 344.438 l 2
 248.063 345.03 247.456 345.638 246.844 346.25 c 0
 207.67 385.424 207.67 448.482 246.844 487.656 c 0
 247.456 488.269 248.079 488.86 248.688 489.469 c 2
 635.75 876.562 l 0
EndSplineSet
Validated: 33
EndChar

StartChar: u
Encoding: 21 117 20
Width: 1024
HStem: 690 20G<206.75 817.031>
LayerCount: 3
Fore
SplineSet
57.0625 810 m 6
 32.1035 810 12 789.896 12 764.938 c 6
 12 761.188 l 6
 11.9814 760.395 11.9814 759.605 12 758.812 c 6
 12 60 l 5
 12 55.0312 l 6
 12 30.0723 32.1035 10 57.0625 10 c 6
 62 10 l 5
 66.9375 10 l 5
 957.062 10 l 5
 962 10 l 5
 966.938 10 l 6
 991.896 10 1012 30.0723 1012 55.0312 c 6
 1012 60 l 5
 1012 758.812 l 6
 1012.02 759.605 1012.02 760.395 1012 761.188 c 6
 1012 764.938 l 6
 1012 789.896 991.896 810 966.938 810 c 6
 962 810 l 5
 66.9375 810 l 5
 57.0625 810 l 6
206.75 710 m 5
 817.031 710 l 5
 511.656 472.312 l 5
 206.75 710 l 5
912 658.219 m 5
 912 110 l 5
 112 110 l 5
 112 658.094 l 5
 471.281 377.938 l 5
 482.238 367.685 498.744 364.156 512 364 c 5
 528.417 365.439 541.458 367.488 552 377.938 c 5
 912 658.219 l 5
EndSplineSet
Validated: 9
EndChar

StartChar: v
Encoding: 22 118 21
Width: 1024
HStem: 61 50<262.03 285.375 738.625 761.97> 151 50<262.03 285.375 738.625 761.97> 241 50<262.03 285.375 738.625 761.97> 791 20G<212 512 612 632> 791 20G<212 512 612 632>
LayerCount: 3
Fore
SplineSet
160.875 911 m 2xe0
 133.791 911 112 889.209 112 862.125 c 2
 112 861 l 1
 112 859.875 l 1
 112 -39 l 2
 112 -66.7002 134.3 -89 162 -89 c 2
 862 -89 l 2
 862.865 -89 863.739 -88.9805 864.594 -88.9375 c 0
 891.085 -87.6035 912 -65.834 912 -39 c 2
 912 511 l 1
 912 611 l 1
 612 911 l 1
 512 911 l 1
 162 911 l 1
 160.875 911 l 2xe0
212 811 m 1xf0
 512 811 l 1
 512 562.125 l 1
 512 561 l 1
 512 559.875 l 2
 512 532.791 533.791 511 560.875 511 c 2
 562 511 l 1
 812 511 l 1
 812 11 l 1
 212 11 l 1
 212 811 l 1xf0
612 811 m 1
 812 611 l 1
 612 611 l 1
 612 811 l 1
285.375 291 m 2
 272.434 291 262 280.566 262 267.625 c 2
 262 264.375 l 2
 262 251.434 272.434 241 285.375 241 c 2
 738.625 241 l 2
 751.566 241 762 251.434 762 264.375 c 2
 762 267.625 l 2
 762 280.566 751.566 291 738.625 291 c 2
 285.375 291 l 2
285.375 201 m 2
 272.434 201 262 190.566 262 177.625 c 2
 262 174.375 l 2
 262 161.434 272.434 151 285.375 151 c 2
 738.625 151 l 2
 751.566 151 762 161.434 762 174.375 c 2
 762 177.625 l 2
 762 190.566 751.566 201 738.625 201 c 2
 285.375 201 l 2
285.375 111 m 2
 272.434 111 262 100.566 262 87.625 c 2
 262 84.375 l 2
 262 71.4336 272.434 61 285.375 61 c 2
 738.625 61 l 2
 751.566 61 762 71.4336 762 84.375 c 2
 762 87.625 l 2
 762 100.566 751.566 111 738.625 111 c 2
 285.375 111 l 2
EndSplineSet
Validated: 9
EndChar

StartChar: w
Encoding: 23 119 22
Width: 1024
HStem: 692.828 20G<487.183 527.764>
LayerCount: 3
Fore
SplineSet
506.844 833.953 m 4
 494.346 833.953 481.858 829.187 472.281 819.609 c 6
 132.594 478.359 l 5
 125.425 473.005 119.823 465.719 116.469 457.266 c 4
 111.207 445.01 111.207 431.084 116.469 418.828 c 4
 121.418 406.359 131.312 396.465 143.781 391.516 c 4
 152.102 387.943 161.183 386.769 170 388.047 c 5
 213 388.047 l 5
 213 38.0469 l 6
 213.003 10.4492 235.402 -11.9502 263 -11.9531 c 6
 763 -11.9531 l 6
 790.598 -11.9502 812.997 10.4492 813 38.0469 c 6
 813 388.047 l 5
 856 388.047 l 5
 864.817 386.769 873.898 387.943 882.219 391.516 c 4
 893.801 396.112 903.164 404.97 908.406 416.203 c 4
 917.811 434.511 915.289 457.289 899.969 472.609 c 6
 543 818.047 l 5
 541.438 819.609 l 6
 531.86 829.187 519.342 833.953 506.844 833.953 c 4
507.094 712.828 m 5
 739.406 488.047 l 5
 283.312 488.047 l 5
 507.094 712.828 l 5
313 388.047 m 5
 713 388.047 l 5
 713 88.0469 l 5
 613 88.0469 l 5
 613 263.047 l 6
 613 276.896 601.85 288.047 588 288.047 c 6
 438 288.047 l 6
 424.15 288.047 413 276.896 413 263.047 c 6
 413 88.0469 l 5
 313 88.0469 l 5
 313 388.047 l 5
EndSplineSet
Validated: 41
EndChar

StartChar: x
Encoding: 24 120 23
Width: 1024
HStem: 10 200<421.471 602.529> 610 200<421.471 602.529>
VStem: 112 200<319.475 500.529> 712 200<319.471 500.529>
LayerCount: 3
Fore
SplineSet
355.812 885.094 m 1
 338.197 879.307 321.033 872.568 304.344 864.938 c 1
 309.32 847.48 312 829.054 312 810 c 0
 312 699.543 222.457 610 112 610 c 0
 92.9463 610 74.5195 612.68 57.0625 617.656 c 1
 49.4316 600.967 42.6943 583.802 36.9062 566.188 c 1
 82.6738 529.536 112 473.195 112 410 c 0
 112 346.813 82.6934 290.465 36.9375 253.812 c 1
 43.7549 233.08 51.8643 212.938 61.2188 193.5 c 1
 77.4395 197.746 94.4482 200 112 200 c 0
 222.457 200 312 110.457 312 0 c 0
 312 -15.8242 310.161 -31.2051 306.688 -45.9688 c 1
 322.643 -53.1641 339.02 -59.5762 355.812 -65.0938 c 1
 392.464 -19.3262 448.805 10 512 10 c 0
 575.195 10 631.536 -19.3262 668.188 -65.0938 c 1
 684.984 -59.5732 701.386 -53.1982 717.344 -46 c 1
 713.864 -31.2256 712 -15.8369 712 0 c 0
 712 110.457 801.543 200 912 200 c 0
 929.552 200 946.561 197.746 962.781 193.5 c 1
 972.134 212.939 980.281 233.077 987.094 253.812 c 1
 941.326 290.464 912 346.805 912 410 c 0
 912 473.195 941.326 529.536 987.094 566.188 c 1
 981.306 583.793 974.565 600.974 966.938 617.656 c 1
 949.48 612.68 931.054 610 912 610 c 0
 801.543 610 712 699.543 712 810 c 0
 712 829.054 714.68 847.48 719.656 864.938 c 1
 702.971 872.566 685.798 879.308 668.188 885.094 c 1
 631.536 839.326 575.195 810 512 810 c 0
 448.805 810 392.464 839.326 355.812 885.094 c 1
512 610 m 0
 622.457 610 712 520.457 712 410 c 0
 712 299.543 622.457 210 512 210 c 0
 401.543 210 312 299.543 312 410 c 0
 312 520.457 401.543 610 512 610 c 0
EndSplineSet
Validated: 9
EndChar

StartChar: y
Encoding: 25 121 24
Width: 1024
LayerCount: 3
Fore
SplineSet
112 809 m 2
 56.5996 809 12 764.4 12 709 c 2
 12 309 l 2
 12 253.6 56.5996 209 112 209 c 2
 412 209 l 2
 467.229 209 512 164.229 512 109 c 2
 512 34 l 2
 512 30.1797 512.855 26.5752 514.375 23.3438 c 0
 514.405 23.2803 514.438 23.2197 514.469 23.1562 c 0
 514.56 22.958 514.653 22.7588 514.75 22.5625 c 0
 514.835 22.3975 514.912 22.2256 515 22.0625 c 0
 515.018 22.0293 515.045 22.002 515.062 21.9688 c 0
 515.237 21.6484 515.405 21.3428 515.594 21.0312 c 0
 516.66 19.2031 517.96 17.4775 519.531 15.9062 c 0
 529.324 6.11328 545.126 6.09961 554.906 15.9062 c 2
 747.469 209 l 1
 912 209 l 2
 967.4 209 1012 253.6 1012 309 c 2
 1012 709 l 2
 1012 764.4 967.4 809 912 809 c 2
 112 809 l 2
EndSplineSet
Validated: 41
EndChar

StartChar: z
Encoding: 26 122 25
Width: 1024
LayerCount: 3
Fore
SplineSet
56.6562 758 m 6
 31.918 758 12 738.082 12 713.344 c 6
 12 708 l 5
 12 102.656 l 6
 12 77.918 31.918 58 56.6562 58 c 6
 67.3438 58 l 5
 962 58 l 6
 962.865 58 963.739 58.0195 964.594 58.0625 c 4
 977.412 58.708 988.902 64.1523 997.375 72.625 c 4
 1006.41 81.6621 1012 94.1504 1012 108 c 6
 1012 708 l 6
 1012 735.7 989.7 758 962 758 c 6
 67.3438 758 l 5
 62 758 l 5
 56.6562 758 l 6
112 658 m 5
 300.938 658 l 5
 112 330.781 l 5
 112 658 l 5
426.781 658 m 5
 912 658 l 5
 912 575.062 l 5
 708.5 640.188 l 6
 704.032 641.434 699.551 641.969 695.156 641.844 c 4
 694.76 641.832 694.364 641.803 693.969 641.781 c 4
 693.602 641.79 693.242 641.812 692.875 641.812 c 4
 681.461 641.812 670.126 637.397 661.312 628.719 c 6
 556 525 l 5
 426.781 658 l 5
368.312 574.719 m 5
 773.156 158 l 5
 127.719 158 l 5
 368.312 574.719 l 5
708.844 535.188 m 5
 912 470.156 l 5
 912 158.594 l 5
 625.688 453.281 l 5
 708.844 535.188 l 5
EndSplineSet
Validated: 9
EndChar

StartChar: A
Encoding: 27 65 26
Width: 1024
HStem: 711 20G<112 912>
LayerCount: 3
Fore
SplineSet
56.6562 831 m 2
 31.918 831 12 811.082 12 786.344 c 2
 12 781 l 1
 12 175.656 l 2
 12 150.918 31.918 131 56.6562 131 c 2
 67.3438 131 l 1
 382 131 l 2
 343.22 131 312 99.7803 312 61 c 2
 312 -9 l 1
 712 -9 l 1
 712 61 l 2
 712 99.7803 680.78 131 642 131 c 2
 962 131 l 2
 962.865 131 963.739 131.02 964.594 131.062 c 0
 991.085 132.396 1012 154.166 1012 181 c 2
 1012 781 l 2
 1012 808.7 989.7 831 962 831 c 2
 67.3438 831 l 1
 62 831 l 1
 56.6562 831 l 2
112 731 m 1
 912 731 l 1
 912 231 l 1
 112 231 l 1
 112 731 l 1
EndSplineSet
Validated: 9
EndChar

StartChar: B
Encoding: 28 66 27
Width: 1024
HStem: 164.156 95.8438<59.5254 99.9062 924.094 964.475>
LayerCount: 3
Fore
SplineSet
162 660 m 2
 134.3 660 112 637.7 112 610 c 2
 112 260 l 1
 99.9062 260 l 2
 73.3604 260 52 238.64 52 212.094 c 0
 52 185.548 73.3604 164.156 99.9062 164.156 c 2
 119.156 164.156 l 1
 127.892 149.658 143.771 140 162 140 c 2
 862 140 l 2
 880.229 140 896.108 149.658 904.844 164.156 c 1
 924.094 164.156 l 2
 950.64 164.156 972 185.548 972 212.094 c 0
 972 238.64 950.64 260 924.094 260 c 2
 912 260 l 1
 912 610 l 2
 912 637.7 889.7 660 862 660 c 2
 162 660 l 2
212 560 m 1
 812 560 l 1
 812 260 l 1
 212 260 l 1
 212 560 l 1
EndSplineSet
Validated: 9
EndChar

StartChar: C
Encoding: 29 67 28
Width: 1024
HStem: -79 50<470.539 553.461> 71 50<470.539 553.461> 801 20G<212 812> 801 20G<212 812>
LayerCount: 3
Fore
SplineSet
162 921 m 6xc0
 134.3 921 112 898.7 112 871 c 6
 112 61 l 5
 112 -29 l 6
 112 -56.7002 134.3 -79 162 -79 c 6
 862 -79 l 6
 889.7 -79 912 -56.7002 912 -29 c 6
 912 61 l 5
 912 71 l 5
 912 871 l 6
 912 898.7 889.7 921 862 921 c 6
 162 921 l 6xc0
212 821 m 5xe0
 812 821 l 5
 812 121 l 5
 212 121 l 5
 212 821 l 5xe0
512 71 m 4
 539.614 71 562 48.6143 562 21 c 4
 562 -6.61426 539.614 -29 512 -29 c 4
 484.386 -29 462 -6.61426 462 21 c 4
 462 48.6143 484.386 71 512 71 c 4
EndSplineSet
Validated: 9
EndChar

StartChar: D
Encoding: 30 68 29
Width: 1024
HStem: -80 50<470.539 553.461> 70 50<470.539 553.461> 800 20G<312 712> 800 20G<312 712>
VStem: 562 250<-21.4608 61.4608>
LayerCount: 3
Fore
SplineSet
262 920 m 6xc8
 234.3 920 212 897.7 212 870 c 6
 212 60 l 5
 212 -30 l 6
 212 -57.7002 234.3 -80 262 -80 c 6
 762 -80 l 6
 789.7 -80 812 -57.7002 812 -30 c 6
 812 60 l 5
 812 70 l 5
 812 870 l 6
 812 897.7 789.7 920 762 920 c 6
 262 920 l 6xc8
312 820 m 5xe8
 712 820 l 5
 712 120 l 5
 312 120 l 5
 312 820 l 5xe8
512 70 m 4
 539.614 70 562 47.6143 562 20 c 4
 562 -7.61426 539.614 -30 512 -30 c 4
 484.386 -30 462 -7.61426 462 20 c 4
 462 47.6143 484.386 70 512 70 c 4
EndSplineSet
Validated: 9
EndChar

StartChar: E
Encoding: 31 69 30
Width: 1024
HStem: 95 100<220.95 403.05> 245 300<234.22 389.78> 595 100<312 403.05> 655 40<772.506 797 947 970.873>
VStem: 12 100<303.95 486.05> 162 300<317.22 472.78> 972 40<555.506 580 630 653.873>
LayerCount: 3
Fore
SplineSet
137 745 m 6xee
 123.15 745 112 733.85 112 720 c 6
 112 695 l 5
 62 695 l 6
 34.2998 695 12 672.7 12 645 c 6
 12 145 l 6
 12 117.3 34.2998 95 62 95 c 6
 962 95 l 6
 989.7 95 1012 117.3 1012 145 c 6
 1012 645 l 6
 1012 672.7 989.7 695 962 695 c 6xde
 312 695 l 5
 312 720 l 6
 312 733.85 300.85 745 287 745 c 6
 137 745 l 6xee
797 655 m 6
 947 655 l 6
 960.85 655 972 643.85 972 630 c 6
 972 580 l 6
 972 566.15 960.85 555 947 555 c 6
 797 555 l 6
 783.15 555 772 566.15 772 580 c 6
 772 630 l 6
 772 643.85 783.15 655 797 655 c 6
312 595 m 4xee
 422.457 595 512 505.457 512 395 c 4
 512 284.543 422.457 195 312 195 c 4
 201.543 195 112 284.543 112 395 c 4
 112 505.457 201.543 595 312 595 c 4xee
312 545 m 4
 229.157 545 162 477.843 162 395 c 4
 162 312.157 229.157 245 312 245 c 4
 394.843 245 462 312.157 462 395 c 4
 462 477.843 394.843 545 312 545 c 4
EndSplineSet
Validated: 9
EndChar

StartChar: F
Encoding: 32 70 31
Width: 1024
HStem: 305.969 220.062<184.037 216.062 277.938 309.963 424.097 456.094 517.906 549.903 664.065 696.062 757.938 789.935> 715.75 21G<906.178 907.823>
VStem: 181.656 130.688<308.345 340.344 491.656 523.655> 421.719 130.562<308.436 340.406 491.594 523.564> 661.688 130.625<308.377 340.375 491.625 523.623> 862 150<224.517 266 566 607.483>
LayerCount: 3
Fore
SplineSet
62 716 m 6
 34.2998 716 12 693.7 12 666 c 6
 12 166 l 5
 12 161.812 l 6
 12 136.441 32.4414 116 57.8125 116 c 6
 906.188 116 l 6
 907.118 116 908.053 116.04 908.969 116.094 c 4
 909.977 116.033 910.977 116 912 116 c 4
 939.7 116 962 138.3 962 166 c 6
 962 216 l 5
 989.7 216 1012 238.3 1012 266 c 6
 1012 566 l 6
 1012 593.7 989.7 616 962 616 c 5
 962 666 l 6
 962 693.7 939.7 716 912 716 c 4
 910.311 716 908.646 715.912 907 715.75 c 4
 905.355 715.912 903.688 716 902 716 c 6
 62 716 l 6
112 616 m 5
 862 616 l 5
 862 216 l 5
 112 216 l 5
 112 616 l 5
216.062 526.031 m 6
 197.012 526.031 181.656 510.707 181.656 491.656 c 6
 181.656 340.344 l 6
 181.656 321.293 197.012 305.969 216.062 305.969 c 6
 277.938 305.969 l 6
 296.988 305.969 312.344 321.293 312.344 340.344 c 6
 312.344 491.656 l 6
 312.344 510.707 296.988 526.031 277.938 526.031 c 6
 216.062 526.031 l 6
696.062 526 m 6
 677.02 526 661.688 510.668 661.688 491.625 c 6
 661.688 340.375 l 6
 661.688 321.333 677.02 306 696.062 306 c 6
 757.938 306 l 6
 776.98 306 792.312 321.333 792.312 340.375 c 6
 792.312 491.625 l 6
 792.312 510.668 776.98 526 757.938 526 c 6
 696.062 526 l 6
456.094 525.938 m 6
 437.061 525.938 421.719 510.628 421.719 491.594 c 6
 421.719 340.406 l 6
 421.719 321.373 437.061 306.062 456.094 306.062 c 6
 517.906 306.062 l 6
 536.939 306.062 552.281 321.373 552.281 340.406 c 6
 552.281 491.594 l 6
 552.281 510.628 536.939 525.938 517.906 525.938 c 6
 456.094 525.938 l 6
EndSplineSet
Validated: 9
EndChar

StartChar: G
Encoding: 33 71 32
Width: 1024
HStem: 299.969 220.062<184.037 216.062 277.938 309.963 424.097 456.094 517.906 549.903> 709.75 21G<906.178 907.823>
VStem: 181.656 130.688<302.345 334.344 485.656 517.655> 421.719 130.562<302.436 334.406 485.594 517.564> 862 150<218.517 260 560 601.483>
LayerCount: 3
Fore
SplineSet
62 710 m 6
 34.2998 710 12 687.7 12 660 c 6
 12 164.188 l 5
 12 160 l 5
 12 155.812 l 6
 12 130.441 32.4414 110 57.8125 110 c 6
 62 110 l 5
 906.188 110 l 6
 907.118 110 908.053 110.04 908.969 110.094 c 4
 909.977 110.033 910.977 110 912 110 c 4
 939.7 110 962 132.3 962 160 c 6
 962 210 l 5
 989.7 210 1012 232.3 1012 260 c 6
 1012 560 l 6
 1012 587.7 989.7 610 962 610 c 5
 962 660 l 6
 962 687.7 939.7 710 912 710 c 4
 910.311 710 908.646 709.912 907 709.75 c 4
 905.355 709.912 903.688 710 902 710 c 6
 62 710 l 6
112 610 m 5
 862 610 l 5
 862 210 l 5
 112 210 l 5
 112 610 l 5
216.062 520.031 m 6
 197.012 520.031 181.656 504.707 181.656 485.656 c 6
 181.656 334.344 l 6
 181.656 315.293 197.012 299.969 216.062 299.969 c 6
 277.938 299.969 l 6
 296.988 299.969 312.344 315.293 312.344 334.344 c 6
 312.344 485.656 l 6
 312.344 504.707 296.988 520.031 277.938 520.031 c 6
 216.062 520.031 l 6
456.094 519.938 m 6
 437.061 519.938 421.719 504.628 421.719 485.594 c 6
 421.719 334.406 l 6
 421.719 315.373 437.061 300.062 456.094 300.062 c 6
 517.906 300.062 l 6
 536.939 300.062 552.281 315.373 552.281 334.406 c 6
 552.281 485.594 l 6
 552.281 504.628 536.939 519.938 517.906 519.938 c 6
 456.094 519.938 l 6
EndSplineSet
Validated: 9
EndChar

StartChar: H
Encoding: 34 72 33
Width: 1024
HStem: 712.75 21G<906.178 907.823>
VStem: 181.656 130.688<305.345 337.344 488.656 520.655> 862 150<221.517 263 563 604.483>
LayerCount: 3
Fore
SplineSet
62 713 m 6
 34.2998 713 12 690.7 12 663 c 6
 12 167.188 l 5
 12 163 l 5
 12 158.812 l 6
 12 133.441 32.4414 113 57.8125 113 c 6
 62 113 l 5
 906.188 113 l 6
 907.118 113 908.053 113.04 908.969 113.094 c 4
 909.977 113.033 910.977 113 912 113 c 4
 939.7 113 962 135.3 962 163 c 6
 962 213 l 5
 989.7 213 1012 235.3 1012 263 c 6
 1012 563 l 6
 1012 590.7 989.7 613 962 613 c 5
 962 663 l 6
 962 690.7 939.7 713 912 713 c 4
 910.311 713 908.646 712.912 907 712.75 c 4
 905.355 712.912 903.688 713 902 713 c 6
 62 713 l 6
112 613 m 5
 862 613 l 5
 862 213 l 5
 112 213 l 5
 112 613 l 5
216.062 523.031 m 6
 197.012 523.031 181.656 507.707 181.656 488.656 c 6
 181.656 337.344 l 6
 181.656 318.293 197.012 302.969 216.062 302.969 c 6
 277.938 302.969 l 6
 296.988 302.969 312.344 318.293 312.344 337.344 c 6
 312.344 488.656 l 6
 312.344 507.707 296.988 523.031 277.938 523.031 c 6
 216.062 523.031 l 6
EndSplineSet
Validated: 9
EndChar

StartChar: I
Encoding: 35 73 34
Width: 1024
VStem: 862 150<215.517 257 557 598.483>
LayerCount: 3
Fore
SplineSet
62 707 m 4
 34.2998 707 12 684.7 12 657 c 4
 12 488.938 12 320.875 12 152.812 c 4
 12 127.441 32.4414 107 57.8125 107 c 4
 355.811 106.714 656.584 107.318 912 107 c 4
 939.7 107 962 129.3 962 157 c 6
 962 207 l 5
 989.7 207 1012 229.3 1012 257 c 6
 1012 557 l 6
 1012 584.7 989.7 607 962 607 c 5
 962 657 l 6
 962 684.7 939.7 707 912 707 c 4
 629.488 706.979 345.141 707 62 707 c 4
112 607 m 5
 862 607 l 5
 862 207 l 5
 112 207 l 5
 112 607 l 5
EndSplineSet
Validated: 41
EndChar

StartChar: J
Encoding: 36 74 35
Width: 1024
HStem: 719 80G<312 712> 769 21G<312 712> 769 21G<312 712> 799 20G<312 712>
VStem: 412 60<549.941 579> 552 60<399.941 429>
LayerCount: 3
Fore
SplineSet
262 919 m 6x0c
 234.3 919 212 896.7 212 869 c 4
 212 649.094 212 408.762 212 198.281 c 5
 299.759 108.982 390.482 21.9854 477.781 -67.5 c 4
 496.731 -86.4502 527.269 -86.4502 546.219 -67.5 c 4
 634.789 21.4404 723.401 110.338 812 199.25 c 5
 812 422.5 812 645.75 812 869 c 4
 812 896.7 789.7 919 762 919 c 6
 262 919 l 6x0c
312 819 m 5x5c
 712 819 l 5
 712 769 l 5
 312 769 l 5
 312 819 l 5x5c
312 719 m 5x8c
 412 719 l 5
 412 579 l 6
 412 562.38 425.38 549 442 549 c 4
 458.62 549 472 562.38 472 579 c 6
 472 719 l 5
 552 719 l 5
 552 429 l 6
 552 412.38 565.38 399 582 399 c 4
 598.62 399 612 412.38 612 429 c 6
 612 719 l 5
 712 719 l 5
 712 289 l 5
 312 289 l 5
 312 719 l 5x8c
312.719 239 m 5
 711.312 239 l 5
 591.281 119 l 5
 432.688 119 l 5
 312.719 239 l 5
EndSplineSet
Validated: 41
EndChar

StartChar: K
Encoding: 37 75 36
Width: 1024
HStem: 500 80<250.189 373.811 650.189 773.811> 620 280<265.668 358.332 665.668 758.332>
VStem: 252 120<633.668 680 840 886.332> 652 120<633.668 680 840 886.332>
LayerCount: 3
Fore
SplineSet
312 900 m 4
 278.76 900 252 873.24 252 840 c 6
 252 680 l 6
 252 646.76 278.76 620 312 620 c 4
 345.24 620 372 646.76 372 680 c 6
 372 840 l 6
 372 873.24 345.24 900 312 900 c 4
712 900 m 4
 678.76 900 652 873.24 652 840 c 6
 652 680 l 6
 652 646.76 678.76 620 712 620 c 4
 745.24 620 772 646.76 772 680 c 6
 772 840 l 6
 772 873.24 745.24 900 712 900 c 4
62 800 m 6
 34.2998 800 12 777.7 12 750 c 6
 12 -50 l 6
 12 -77.7002 34.2998 -100 62 -100 c 6
 962 -100 l 6
 989.7 -100 1012 -77.7002 1012 -50 c 6
 1012 750 l 6
 1012 777.7 989.7 800 962 800 c 6
 812 800 l 5
 812 680 l 6
 812 624.6 767.4 580 712 580 c 4
 656.6 580 612 624.6 612 680 c 6
 612 800 l 5
 412 800 l 5
 412 680 l 6
 412 624.6 367.4 580 312 580 c 4
 256.6 580 212 624.6 212 680 c 6
 212 800 l 5
 62 800 l 6
112 500 m 5
 912 500 l 5
 912 0 l 5
 112 0 l 5
 112 500 l 5
EndSplineSet
Validated: 9
EndChar

StartChar: L
Encoding: 38 76 37
Width: 1024
HStem: -90 101.062<427.422 596.455> 55 99.8438<485.917 548.795> 810 99.75<377.287 505.687>
VStem: 230.969 100<106.703 190 700.125 762.488> 382 100<158.88 189.188 560 601.483> 552 100<158.88 189.188 700 762.396> 692 100<106.703 190 650 691.483>
LayerCount: 3
Fore
SplineSet
441.469 909.75 m 0
 325.509 909.75 231.458 815.971 230.969 700.125 c 0
 230.969 700.083 230.969 700.042 230.969 700 c 2
 230.969 190 l 2
 231.526 35.2705 357.141 -90 512 -90 c 0
 666.859 -90 792.474 35.2705 793.031 190 c 1
 792 190 l 1
 792 650 l 2
 792 677.7 769.7 700 742 700 c 0
 714.3 700 692 677.7 692 650 c 2
 692 190 l 1
 691.969 190 l 1
 691.413 91.085 611.046 11.0625 512 11.0625 c 0
 412.954 11.0625 331.523 91.085 330.969 190 c 2
 330.969 700 l 1
 330.969 700.125 l 2
 331.323 760.858 380.652 810 441.469 810 c 0
 502.327 810 551.712 760.791 552 700 c 0
 551.754 529.745 552.343 359.387 552 189.188 c 0
 552 170.213 536.631 154.844 517.656 154.844 c 0
 498.682 154.844 482 170.213 482 189.188 c 0
 482 312.723 482 436.41 482 560 c 0
 482 587.7 459.7 610 432 610 c 0
 404.3 610 382 587.7 382 560 c 0
 382.06 436.412 381.917 312.719 382 189.188 c 0
 382 115.069 443.538 55 517.656 55 c 0
 591.774 55 652 115.069 652 189.188 c 0
 652 359.388 652 529.743 652 700 c 0
 651.578 815.903 557.471 909.75 441.469 909.75 c 0
EndSplineSet
Validated: 41
EndChar

StartChar: M
Encoding: 39 77 38
Width: 1024
HStem: -94 200<400.539 623.461> 706 200<400.539 623.461>
VStem: 12 200<294.539 517.461> 812 200<294.539 517.461>
LayerCount: 3
Fore
SplineSet
512 906 m 4
 235.857 906 12 682.143 12 406 c 4
 12 129.857 235.857 -94 512 -94 c 4
 788.143 -94 1012 129.857 1012 406 c 4
 1012 682.143 788.143 906 512 906 c 4
512 706 m 4
 677.686 706 812 571.686 812 406 c 4
 812 240.314 677.686 106 512 106 c 4
 346.314 106 212 240.314 212 406 c 4
 212 571.686 346.314 706 512 706 c 4
EndSplineSet
Validated: 9
EndChar

StartChar: N
Encoding: 40 78 39
Width: 1024
HStem: 125 200<450.9 573.1> 525 200<450.9 573.1>
VStem: 212 200<363.9 486.1> 612 200<363.9 486.1>
LayerCount: 3
Fore
SplineSet
512 725 m 0
 346.314 725 212 590.686 212 425 c 0
 212 259.314 346.314 125 512 125 c 0
 677.686 125 812 259.314 812 425 c 0
 812 590.686 677.686 725 512 725 c 0
512 525 m 0
 567.229 525 612 480.229 612 425 c 0
 612 369.771 567.229 325 512 325 c 0
 456.771 325 412 369.771 412 425 c 0
 412 480.229 456.771 525 512 525 c 0
EndSplineSet
Validated: 9
EndChar

StartChar: O
Encoding: 41 79 40
Width: 1024
HStem: 106 200<451.9 575.235> 506 200<451.9 575.019>
VStem: 213 200<344.9 467.1>
LayerCount: 3
Fore
SplineSet
513 706 m 4
 347.314 706 213 571.686 213 406 c 4
 213 240.314 347.314 106 513 106 c 4
 665.989 106 792.238 220.509 810.688 368.5 c 5
 772.051 377.302 741.947 408.487 734.688 447.688 c 5
 688.211 456.295 653 497.031 653 546 c 4
 653 558.503 655.309 570.468 659.5 581.5 c 5
 631.551 599.232 613 630.449 613 666 c 4
 613 673.567 613.845 680.945 615.438 688.031 c 5
 583.474 699.648 548.983 706 513 706 c 4
513 506 m 4
 568.229 506 613 461.229 613 406 c 4
 613 350.771 568.229 306 513 306 c 4
 457.771 306 413 350.771 413 406 c 4
 413 461.229 457.771 506 513 506 c 4
EndSplineSet
Validated: 9
EndChar
